<svg xmlns="http://www.w3.org/2000/svg" viewBox="0 0 410 404">
  <path d="M399.641 59.524L215.643 388.545c-3.362 6.01-11.925 6.054-15.35.079L9.48 59.61c-3.748-6.454 1.73-14.4 9.005-13.06l184.71 33.951a8.05 8.05 0 0 0 2.91-.006l184.47-33.883c7.264-1.333 12.735 6.58 9.066 13.012Z" fill="#41D1FF"/>
  <path d="M292.965.011L156.887 26.68a4.027 4.027 0 0 0-3.238 3.348l-8.373 141.094a4.027 4.027 0 0 0 4.945 4.228l37.89-8.749c3.543-.818 6.743 2.307 5.674 5.786l-11.252 36.595c-1.069 3.478 2.13 6.603 5.673 5.785l23.408-5.405c3.548-.819 6.75 2.314 5.674 5.794l-17.88 57.816c-1.119 3.619 3.7 5.593 5.32 2.18l1.082-2.28 110.92-221.27c1.86-3.71-1.346-7.814-5.404-7.034l-38.994 7.506c-3.664.706-6.781-2.73-5.912-6.354l25.45-106.4c.87-3.637-2.552-6.84-6.2-6.125Z" fill="#BD34FE"/>
  <path d="M193.676 106.677 86.122 85.772a2.013 2.013 0 0 0-2.32 2.844l74.295 128.555a2.013 2.013 0 0 0 3.756-.527l31.49-105.58a2.013 2.013 0 0 0-1.667-2.387Z" fill="#FFEA83"/>
</svg>
